<?xml version="1.0" encoding="UTF-8" standalone="no"?>
<!-- Created with Inkscape (http://www.inkscape.org/) -->

<svg
   xmlns:dc="http://purl.org/dc/elements/1.1/"
   xmlns:cc="http://creativecommons.org/ns#"
   xmlns:rdf="http://www.w3.org/1999/02/22-rdf-syntax-ns#"
   xmlns:svg="http://www.w3.org/2000/svg"
   xmlns="http://www.w3.org/2000/svg"
   xmlns:sodipodi="http://sodipodi.sourceforge.net/DTD/sodipodi-0.dtd"
   xmlns:inkscape="http://www.inkscape.org/namespaces/inkscape"
   width="210mm"
   height="210mm"
   viewBox="0 0 210 210"
   version="1.1"
   id="svg8"
   inkscape:version="0.92.3 (2405546, 2018-03-11)"
   sodipodi:docname="Logo.svg"
   inkscape:export-filename="D:\SOA\SOA_Project1\FrontEndCode\Logo\icon.png"
   inkscape:export-xdpi="300"
   inkscape:export-ydpi="300">
  <defs
     id="defs2" />
  <sodipodi:namedview
     id="base"
     pagecolor="#ffffff"
     bordercolor="#666666"
     borderopacity="1.0"
     inkscape:pageopacity="0.0"
     inkscape:pageshadow="2"
     inkscape:zoom="0.98994949"
     inkscape:cx="193.57032"
     inkscape:cy="347.08625"
     inkscape:document-units="mm"
     inkscape:current-layer="g29"
     showgrid="false"
     inkscape:window-width="1920"
     inkscape:window-height="1051"
     inkscape:window-x="-9"
     inkscape:window-y="-9"
     inkscape:window-maximized="1" />
  <metadata
     id="metadata5">
    <rdf:RDF>
      <cc:Work
         rdf:about="">
        <dc:format>image/svg+xml</dc:format>
        <dc:type
           rdf:resource="http://purl.org/dc/dcmitype/StillImage" />
        <dc:title />
      </cc:Work>
    </rdf:RDF>
  </metadata>
  <g
     inkscape:label="Capa 1"
     inkscape:groupmode="layer"
     id="layer1"
     transform="translate(0,-87)">
    <g
       id="g29"
       transform="matrix(1.6645311,0,0,1.3378154,-66.615943,-59.464068)">
      <ellipse
         style="opacity:0.90499998;fill:#2e2e2e;fill-opacity:1;stroke:#f88800;stroke-width:1.25903952;stroke-miterlimit:4;stroke-dasharray:none;stroke-opacity:1"
         id="path7610"
         cx="103.10168"
         cy="187.96619"
         rx="62.323196"
         ry="77.100876" />
      <path
         style="fill:#f1eaa1;fill-opacity:1;stroke-width:0.29930335"
         d="M 101.85779,251.75069 C 101.5949,251.63333 91.817191,246.27951 80.129552,239.85333 64.053085,231.01403 58.774675,227.9773 58.449567,227.38057 58.102554,226.74364 58.01983,224.39992 58.01983,215.20531 v -11.3865 l -0.843382,-0.5619 c -0.463862,-0.30905 -2.223466,-1.31281 -3.910232,-2.23058 -1.686767,-0.91777 -3.396186,-1.97636 -3.79871,-2.35242 -1.476203,-1.37917 -1.205331,-2.0897 4.568161,-11.9827 2.906469,-4.98029 5.440442,-9.20466 5.631051,-9.38747 0.809492,-0.77639 23.959903,-13.25721 24.335733,-13.11985 0.318581,0.11644 0.393203,0.86659 0.326036,3.27748 l -0.0871,3.12646 -8.125411,4.46851 c -4.468975,2.45767 -8.165319,4.58253 -8.214098,4.72192 -0.04878,0.13937 7.851407,4.62099 17.555968,9.95915 l 17.644664,9.70574 17.64465,-9.70574 c 9.70456,-5.33816 17.60553,-9.81595 17.5577,-9.95064 -0.0478,-0.13469 -3.74417,-2.25822 -8.21409,-4.71895 l -8.12715,-4.47406 -0.0871,-3.12944 c -0.0665,-2.38854 0.009,-3.16459 0.31928,-3.27795 0.22351,-0.0817 5.81147,2.82192 12.41769,6.45247 l 12.0113,6.601 5.41184,9.25323 c 5.76411,9.85556 6.11861,10.73416 4.86383,12.05473 -0.3129,0.32931 -1.88431,1.32671 -3.49202,2.21646 -1.60772,0.88976 -3.44065,1.93393 -4.0732,2.3204 l -1.15006,0.70266 v 11.40225 c 0,9.19345 -0.083,11.55503 -0.42865,12.191 -0.32457,0.59724 -5.63054,3.64992 -21.8513,12.57171 -20.99414,11.54726 -22.71678,12.39244 -24.04742,11.79841 z m 22.43015,-17.81238 17.43668,-9.56627 0.0101,-8.56114 c 0.005,-4.70863 -0.0934,-8.50713 -0.21993,-8.44109 -0.1265,0.066 -6.38345,3.49135 -13.90433,7.61182 -8.67241,4.75138 -13.97856,7.49177 -14.50609,7.49177 -1.66944,0 -2.42397,-0.7085 -4.47934,-4.2061 -1.09519,-1.86367 -2.09575,-3.38848 -2.22347,-3.38848 -0.12771,0 -0.23221,6.44079 -0.23221,14.31287 0,10.30625 0.0954,14.31288 0.34096,14.31288 0.18753,0 8.18747,-4.30482 17.77764,-9.56626 z M 95.282036,209.98598 c 1.686766,-2.85153 3.066848,-5.42335 3.066848,-5.71515 0,-0.39393 -4.500839,-3.00767 -17.47902,-10.15046 -9.613459,-5.29094 -17.638391,-9.6199 -17.833183,-9.6199 -0.308118,0 -6.861985,10.57892 -6.853918,11.06325 0.0017,0.10041 5.266579,3.07436 11.699794,6.60876 6.433214,3.53441 14.332813,7.89063 17.554667,9.68049 3.221849,1.78987 6.064921,3.26854 6.317937,3.28595 0.29082,0.02 1.588065,-1.87532 3.526875,-5.15294 z m 37.196114,-4.6004 c 9.64715,-5.30161 17.54181,-9.72086 17.5437,-9.82057 0.002,-0.0997 -1.46875,-2.63959 -3.26809,-5.64419 -2.6531,-4.43023 -3.37728,-5.43658 -3.83094,-5.32359 -0.30767,0.0767 -3.90728,1.98458 -7.99913,4.23987 -4.09186,2.2553 -11.85601,6.53106 -17.25366,9.5017 -7.19902,3.96202 -9.81392,5.54256 -9.81392,5.93186 0,0.2919 1.38009,2.86767 3.06685,5.72395 2.12731,3.60227 3.21208,5.16827 3.54089,5.11174 0.26072,-0.0448 8.36716,-4.41917 18.0143,-9.72077 z M 90.278909,191.04087 c -2.961981,-1.60941 -4.165443,-2.42492 -4.383072,-2.97011 -0.185808,-0.46547 -0.265939,-6.4858 -0.210515,-15.81657 0.08813,-14.83754 0.09956,-15.08267 0.756797,-16.23343 0.677626,-1.18646 1.078163,-3.22827 0.818676,-4.17335 -0.0785,-0.28592 -0.753601,-0.82851 -1.500225,-1.20575 -1.7394,-0.87886 -3.982084,-3.16291 -4.837741,-4.92698 -0.635,-1.30915 -0.672968,-1.84019 -0.76091,-10.64298 -0.06396,-6.40195 0.01288,-9.45275 0.24866,-9.87234 0.733173,-1.3048 3.21433,-1.33122 3.885437,-0.0414 0.13863,0.26643 0.321056,3.57338 0.405394,7.34877 0.206445,9.24152 0.717701,9.12524 0.920054,-0.20926 0.165472,-7.63312 0.186507,-7.72425 1.87362,-8.11771 0.596536,-0.13911 1.025883,-0.002 1.686767,0.53922 l 0.886543,0.72584 0.09673,7.03615 c 0.08816,6.41213 0.264595,7.87944 0.790507,6.57411 0.102387,-0.25412 0.186155,-3.46499 0.186155,-7.13524 v -6.6732 l 0.808072,-0.6054 c 1.019398,-0.76373 1.658045,-0.76373 2.677444,0 l 0.808071,0.6054 v 6.6732 c 0,3.67025 0.08377,6.88112 0.186155,7.13524 0.51301,1.2733 0.679246,-0.13007 0.778676,-6.57372 l 0.108566,-7.03575 0.860484,-0.70488 c 1.057848,-0.86656 1.726363,-0.88765 2.793556,-0.0881 l 0.82326,0.61678 -0.0919,9.67972 c -0.0907,9.56262 -0.10082,9.69694 -0.83268,11.10166 -0.931631,1.78818 -3.197387,3.9668 -4.874613,4.68716 l -1.284973,0.55188 v 1.69278 c 0,1.24465 0.202971,2.05635 0.766713,3.06619 l 0.766711,1.37341 v 17.57009 c 0,17.19735 -0.05358,18.27922 -0.90472,18.26914 -0.09277,-8.3e-4 -2.006059,-1.00036 -4.251749,-2.22058 z m 20.858731,1.87206 c -0.27801,-0.26479 -0.36802,-4.61067 -0.36802,-17.76857 v -17.41804 l 0.76543,-1.43698 c 0.54715,-1.02719 0.7658,-1.90799 0.76671,-3.08867 l 8.7e-4,-1.65168 -1.63956,-0.88131 c -2.11893,-1.13901 -3.99719,-3.18946 -4.82331,-5.26559 -0.59151,-1.48653 -0.63973,-2.03913 -0.48798,-5.59286 0.10961,-2.5673 0.38233,-4.6986 0.7815,-6.10773 1.72148,-6.07702 5.23683,-9.64272 9.52279,-9.65922 5.91715,-0.0228 10.22598,6.89548 10.27479,16.49721 0.0179,3.51753 -0.0405,3.91884 -0.79278,5.44706 -0.93923,1.90805 -2.64673,3.6449 -4.58033,4.65907 -1.29664,0.68007 -1.36187,0.77885 -1.52311,2.3063 -0.1426,1.35081 -0.0484,1.79856 0.61336,2.91652 l 0.78184,1.32072 0.0918,15.05921 c 0.0576,9.43753 -0.0214,15.34273 -0.21137,15.81869 -0.22202,0.55619 -1.39964,1.35321 -4.40001,2.97793 -2.25327,1.22015 -4.16618,2.21846 -4.2509,2.21846 -0.0848,0 -0.31967,-0.15773 -0.52209,-0.35052 z M 122.329,139.44411 c -0.27437,-4.49562 -1.82527,-9.27415 -3.00997,-9.27415 -0.71036,0 -0.72788,-0.16555 0.21683,2.04882 0.93819,2.19911 1.66104,5.56664 1.66104,7.73831 0,1.86046 0.21101,2.48105 0.84357,2.48105 0.40513,0 0.44561,-0.42019 0.28853,-2.99403 z"
         id="path43"
         inkscape:connector-curvature="0" />
      <path
         style="fill:#e6a322;fill-opacity:1;stroke-width:0.29930335"
         d="m 101.7216,251.27785 c -0.50604,-0.23197 -10.30462,-5.59245 -21.774633,-11.91217 -18.440684,-10.16042 -20.916635,-11.6077 -21.390789,-12.50361 -0.482899,-0.91243 -0.53627,-2.13655 -0.536699,-12.30957 l -4.77e-4,-11.29639 -4.063573,-2.23522 c -2.234966,-1.22937 -4.30202,-2.52107 -4.593453,-2.87044 -1.108752,-1.32917 -0.791522,-2.10605 4.701791,-11.5144 2.884919,-4.94097 5.472572,-9.20447 5.75034,-9.47444 0.836998,-0.81349 23.470339,-13.11094 23.96642,-13.02176 0.362085,0.0651 0.478889,0.66352 0.548616,2.81071 0.05566,1.71422 -0.03972,2.87526 -0.256692,3.12426 -0.189905,0.21793 -3.992932,2.39942 -8.451175,4.84775 -4.458243,2.44831 -8.068953,4.55405 -8.023799,4.6794 0.103778,0.28809 35.083963,19.51981 35.504203,19.51981 0.42023,0 35.40042,-19.23172 35.50419,-19.51981 0.0451,-0.12535 -3.56555,-2.23109 -8.0238,-4.6794 -4.45824,-2.44833 -8.26127,-4.62982 -8.45117,-4.84775 -0.21697,-0.249 -0.31236,-1.41004 -0.2567,-3.12426 0.0697,-2.14719 0.18654,-2.74561 0.54862,-2.81071 0.49608,-0.0892 23.12942,12.20827 23.96643,13.02176 0.27776,0.26997 2.86541,4.53347 5.75033,9.47444 5.49332,9.40835 5.81055,10.18523 4.70179,11.5144 -0.29143,0.34937 -2.35848,1.64107 -4.59345,2.87044 l -4.06357,2.23522 -6.2e-4,11.29639 c -3e-4,10.17455 -0.0537,11.39661 -0.53669,12.30557 -0.44815,0.84344 -1.59406,1.59095 -6.97661,4.55103 -3.54221,1.94802 -13.18537,7.25113 -21.42927,11.78471 -8.24388,4.53357 -15.3513,8.30202 -15.79426,8.37433 -0.44297,0.0723 -1.21941,-0.0583 -1.72544,-0.29029 z m 22.54133,-17.47673 17.63438,-9.70522 0.0813,-8.54372 c 0.0611,-6.41866 -0.009,-8.54372 -0.28095,-8.54372 -0.19926,0 -6.45273,3.3498 -13.89662,7.444 -7.4439,4.0942 -13.94185,7.51687 -14.43991,7.60592 -1.57048,0.28083 -2.56238,-0.62685 -4.73913,-4.33675 -1.0964,-1.86863 -2.09695,-3.40047 -2.22345,-3.40409 -0.12651,-0.003 -0.23002,6.56565 -0.23002,14.59839 0,8.03274 0.10351,14.60169 0.23002,14.59768 0.1265,-0.004 8.16547,-4.37463 17.86438,-9.71249 z M 95.485135,209.62123 c 1.798927,-2.96324 3.282515,-5.53359 3.296862,-5.71187 0.02199,-0.27305 -34.116391,-19.29577 -35.587102,-19.82999 -0.391787,-0.14232 -1.197418,1.00376 -3.783677,5.38259 -1.807245,3.05986 -3.233625,5.71276 -3.169731,5.89533 0.141588,0.40456 35.233965,19.80106 35.666188,19.71366 0.168677,-0.0341 1.778533,-2.48648 3.57746,-5.44972 z m 36.629165,-4.18721 c 9.75389,-5.36428 17.78595,-9.90071 17.84904,-10.08095 0.12577,-0.35936 -6.30919,-11.42046 -6.64402,-11.42046 -0.11386,0 -5.7247,3.03664 -12.46853,6.74809 -6.74384,3.71146 -14.78018,8.12529 -17.85852,9.80853 -3.07835,1.68324 -5.59701,3.16322 -5.59701,3.28886 0,0.47043 6.61879,11.40916 6.90343,11.40916 0.0447,0 8.06172,-4.38895 17.81561,-9.75323 z M 90.248795,190.10277 c -2.3485,-1.32361 -3.589537,-2.20517 -3.774382,-2.68109 -0.154112,-0.39679 -0.233927,-7.27655 -0.18123,-15.62194 0.08808,-13.94937 0.130946,-14.96634 0.663433,-15.73996 0.855096,-1.24233 1.140175,-2.4944 0.922984,-4.05379 -0.1838,-1.31966 -0.28296,-1.44532 -1.668028,-2.11381 -1.947063,-0.93972 -3.562157,-2.54501 -4.544297,-4.51671 l -0.800253,-1.60655 -0.09141,-9.05508 c -0.100047,-9.91023 -0.06159,-10.15046 1.624837,-10.15046 1.589302,0 1.686767,0.4449 1.686767,7.69955 0,3.65121 0.08377,6.84649 0.186155,7.10061 0.220242,0.54665 1.073059,0.60636 1.592617,0.11152 0.265602,-0.25297 0.368021,-2.28337 0.368021,-7.29575 0,-6.90044 0.0045,-6.94805 0.696918,-7.38016 0.806458,-0.50328 1.908797,-0.32027 2.272046,0.37721 0.138174,0.26532 0.320232,3.63543 0.40457,7.48914 0.145175,6.63362 0.184925,7.01251 0.74644,7.11517 1.257628,0.22992 1.400354,-0.55943 1.400354,-7.74482 v -6.80178 l 0.766711,-0.47847 c 0.710243,-0.44324 0.823183,-0.44324 1.533424,0 l 0.766713,0.47847 v 6.54649 c 0,7.04943 0.17865,8.14447 1.303904,7.99225 0.687734,-0.093 0.690029,-0.11209 0.872405,-7.24972 0.100571,-3.93604 0.204077,-7.18627 0.230014,-7.22273 0.02594,-0.0364 0.392176,-0.2816 0.813867,-0.54476 0.710243,-0.44324 0.823183,-0.44324 1.533424,0 l 0.766721,0.47847 v 9.03739 c 0,8.43271 -0.0426,9.14585 -0.636738,10.65827 -0.772855,1.96741 -2.909041,4.14587 -4.960269,5.05843 l -1.456752,0.6481 v 1.94106 c 0,1.47937 0.182952,2.29721 0.769193,3.43846 l 0.76919,1.4974 -0.07914,17.22211 c -0.06916,15.04958 -0.137183,17.22952 -0.53918,17.28081 -0.253015,0.0323 -2.034571,-0.82872 -3.959016,-1.91333 z m 21.267615,1.62838 c -0.0842,-0.20913 -0.11443,-8.12868 -0.067,-17.59899 l 0.0862,-17.21876 0.70368,-0.93964 c 0.60506,-0.80794 0.69103,-1.2351 0.61337,-3.04777 l -0.0903,-2.10814 -1.53341,-0.84836 c -2.0909,-1.15678 -3.428,-2.42035 -4.39765,-4.15587 -0.76801,-1.37459 -0.81586,-1.69245 -0.81353,-5.40384 0.004,-4.74752 0.59069,-7.49013 2.30263,-10.74543 1.88181,-3.5783 4.26735,-5.32005 7.28648,-5.32005 4.02966,0 7.32257,3.47512 8.99548,9.49324 0.4919,1.76957 0.65984,3.29399 0.69183,6.28014 0.038,3.54924 -0.0269,4.07691 -0.64925,5.27986 -1.04054,2.01115 -2.61153,3.59218 -4.50639,4.5352 l -1.70106,0.84657 -6.1e-4,2.15627 c -6.1e-4,1.72906 0.13599,2.36565 0.68931,3.21309 0.68913,1.05542 0.69014,1.07658 0.76591,15.86389 0.0417,8.14388 -0.0456,15.11045 -0.19401,15.48127 -0.17766,0.44384 -1.52008,1.34793 -3.9287,2.64589 -2.01235,1.08442 -3.75799,1.97167 -3.87919,1.97167 -0.1212,0 -0.2893,-0.1711 -0.37356,-0.38024 z m 11.33032,-52.34372 c -0.0393,-3.49404 -0.56209,-5.8925 -1.84848,-8.48017 -0.85857,-1.7271 -1.71839,-2.23415 -2.51001,-1.48019 -0.42893,0.40854 -0.43938,0.59186 -0.0808,1.4175 1.49784,3.44874 2.16859,6.29461 2.17296,9.21929 0.003,2.02288 0.40969,2.74493 1.4797,2.6272 l 0.82275,-0.0905 z"
         id="path41"
         inkscape:connector-curvature="0" />
      <path
         style="fill:#e68322;fill-opacity:0.8486239;stroke-width:0.29930335"
         d="M 101.55642,250.97403 C 96.571354,248.51432 59.144597,227.629 58.852634,227.14397 58.583619,226.69706 58.436117,223.25452 58.325699,214.8459 l -0.153342,-11.67743 -3.833561,-2.11883 c -2.108458,-1.16535 -4.144078,-2.39796 -4.523601,-2.73913 -1.379537,-1.24012 -1.089584,-1.98044 4.549289,-11.61547 2.881631,-4.92379 5.40028,-9.10847 5.596998,-9.2993 0.592089,-0.57436 23.240414,-12.94356 23.699999,-12.94356 0.33325,0 0.425743,0.60138 0.425743,2.76821 0,2.54882 -0.05468,2.80223 -0.690041,3.19743 -0.379522,0.23608 -4.140245,2.32754 -8.357161,4.64771 -4.216916,2.32017 -7.667121,4.38281 -7.667121,4.58363 0,0.33805 35.126069,19.85496 35.734509,19.85496 0.60248,0 35.72305,-19.51644 35.72305,-19.85124 0,-0.19809 -3.72622,-2.41816 -8.28049,-4.93349 l -8.28048,-4.57334 -0.0878,-2.84694 c -0.0711,-2.30787 -0.005,-2.84693 0.34906,-2.84693 0.46707,0 23.11003,12.36048 23.71111,12.94356 0.19672,0.19083 2.71537,4.37551 5.597,9.2993 5.63887,9.63503 5.92883,10.37535 4.54929,11.61547 -0.37952,0.34117 -2.41514,1.57378 -4.5236,2.73913 l -3.83356,2.11883 -0.15334,11.67743 c -0.11012,8.38559 -0.2583,11.85173 -0.52564,12.29575 -0.4367,0.72531 -43.26853,24.35619 -44.14648,24.35619 -0.32315,0 -1.06526,-0.23572 -1.64913,-0.52381 z m 22.35478,-16.61092 c 9.55501,-5.24708 17.61426,-9.73657 17.90944,-9.97666 0.48816,-0.39705 0.5367,-1.1992 0.5367,-8.8713 0,-7.09886 -0.0704,-8.46052 -0.4447,-8.59731 -0.25283,-0.0924 -6.17411,2.98237 -13.72414,7.1266 -16.04381,8.80651 -14.50896,8.04327 -15.73441,7.8243 -1.26427,-0.2259 -1.40114,-0.38631 -3.83209,-4.49102 -1.0964,-1.8513 -2.16596,-3.42076 -2.3768,-3.4877 -0.30338,-0.0963 -0.38335,3.02161 -0.38335,14.94576 0,10.78942 0.096,15.06746 0.33831,15.06746 0.18607,0 8.15605,-4.29306 17.71104,-9.54013 z M 95.701816,209.84416 c 1.749416,-2.97578 3.198502,-5.62165 3.220192,-5.87972 0.0275,-0.3272 -5.390744,-3.45913 -17.901633,-10.34776 -9.867583,-5.43321 -18.078514,-9.83657 -18.246513,-9.78527 -0.167999,0.0513 -1.810623,2.63209 -3.650277,5.73509 -2.377492,4.01018 -3.26479,5.76177 -3.068081,6.05664 0.411554,0.6169 35.688281,19.93334 36.106667,19.77088 0.197388,-0.0767 1.790227,-2.57408 3.539645,-5.54986 z m 38.221684,-5.03924 c 8.77119,-4.82281 16.07215,-8.95501 16.22436,-9.18267 0.19655,-0.29399 -0.69249,-2.04877 -3.06809,-6.05575 -1.83965,-3.103 -3.48227,-5.68378 -3.65027,-5.73509 -0.168,-0.0513 -8.37893,4.35206 -18.24652,9.78527 -13.10658,7.21663 -17.92926,10.01172 -17.89725,10.37278 0.0475,0.5352 5.73134,10.22985 6.48958,11.06884 0.55231,0.61113 -1.64014,1.72686 20.14819,-10.25338 z M 90.248807,190.19301 c -2.3485,-1.32361 -3.589537,-2.20517 -3.774382,-2.68109 -0.154112,-0.39679 -0.233927,-7.27655 -0.18123,-15.62194 0.08808,-13.94937 0.130946,-14.96634 0.663433,-15.73996 0.855096,-1.24233 1.140175,-2.4944 0.922984,-4.05379 -0.1838,-1.31966 -0.28296,-1.44532 -1.668028,-2.11381 -1.947063,-0.93972 -3.562157,-2.54501 -4.544297,-4.51671 l -0.800253,-1.60655 -0.09141,-9.05508 c -0.100047,-9.91023 -0.06159,-10.15046 1.624837,-10.15046 1.589302,0 1.686767,0.4449 1.686767,7.69955 0,3.65121 0.08377,6.84649 0.186155,7.10061 0.220242,0.54665 1.073059,0.60636 1.592617,0.11152 0.265602,-0.25297 0.368021,-2.28337 0.368021,-7.29575 0,-6.90044 0.0045,-6.94805 0.696918,-7.38016 0.806458,-0.50328 1.908797,-0.32027 2.272046,0.37721 0.138174,0.26532 0.320232,3.63543 0.40457,7.48914 0.145175,6.63362 0.184925,7.01251 0.74644,7.11517 1.257628,0.22992 1.400354,-0.55943 1.400354,-7.74482 v -6.80178 l 0.766711,-0.47847 c 0.710243,-0.44324 0.823183,-0.44324 1.533424,0 l 0.766713,0.47847 v 6.54649 c 0,7.04943 0.17865,8.14447 1.303904,7.99225 0.687734,-0.093 0.690029,-0.11209 0.872405,-7.24972 0.100571,-3.93604 0.204077,-7.18627 0.230014,-7.22273 0.02594,-0.0364 0.392176,-0.2816 0.813867,-0.54476 0.710243,-0.44324 0.823183,-0.44324 1.533424,0 l 0.766709,0.47847 v 9.03739 c 0,8.43271 -0.0426,9.14585 -0.636726,10.65827 -0.772855,1.96741 -2.909041,4.14587 -4.960269,5.05843 l -1.456752,0.6481 v 1.94106 c 0,1.47937 0.182952,2.29721 0.769193,3.43846 l 0.76919,1.4974 -0.07914,17.22211 c -0.06916,15.04958 -0.137183,17.22952 -0.53918,17.28081 -0.253015,0.0323 -2.034571,-0.82872 -3.959016,-1.91333 z m 21.267603,1.62838 c -0.0842,-0.20913 -0.11443,-8.12868 -0.067,-17.59899 l 0.0862,-17.21876 0.70368,-0.93964 c 0.60506,-0.80794 0.69103,-1.2351 0.61337,-3.04777 l -0.0903,-2.10814 -1.53341,-0.84836 c -2.0909,-1.15678 -3.428,-2.42035 -4.39765,-4.15587 -0.76801,-1.37459 -0.81586,-1.69245 -0.81353,-5.40384 0.004,-4.74752 0.59069,-7.49013 2.30263,-10.74543 1.88181,-3.5783 4.26735,-5.32005 7.28648,-5.32005 4.02966,0 7.32257,3.47512 8.99548,9.49324 0.4919,1.76957 0.65984,3.29399 0.69183,6.28014 0.038,3.54924 -0.0269,4.07691 -0.64925,5.27986 -1.04054,2.01115 -2.61153,3.59218 -4.50639,4.5352 l -1.70106,0.84657 -6.1e-4,2.15627 c -6.1e-4,1.72906 0.13599,2.36565 0.68931,3.21309 0.68913,1.05542 0.69014,1.07658 0.76591,15.86389 0.0417,8.14388 -0.0456,15.11045 -0.19401,15.48127 -0.17766,0.44384 -1.52008,1.34793 -3.9287,2.64589 -2.01235,1.08442 -3.75799,1.97167 -3.87919,1.97167 -0.1212,0 -0.2893,-0.1711 -0.37356,-0.38024 z m 11.33032,-52.34372 c -0.0393,-3.49404 -0.56209,-5.8925 -1.84848,-8.48017 -0.85857,-1.7271 -1.71839,-2.23415 -2.51001,-1.48019 -0.42893,0.40854 -0.43938,0.59186 -0.0808,1.4175 1.49784,3.44874 2.16859,6.29461 2.17296,9.21929 0.003,2.02288 0.40969,2.74493 1.4797,2.6272 l 0.82275,-0.0905 z"
         id="path39"
         inkscape:connector-curvature="0" />
      <path
         style="fill:#e67e22;fill-opacity:1;stroke-width:0.29930335"
         d="m 81.020381,239.79003 c -11.55435,-6.35445 -21.318428,-11.82985 -21.69795,-12.16757 l -0.690041,-0.61403 -0.0042,-11.26794 c -0.0023,-6.19736 -0.08255,-11.54602 -0.17833,-11.88589 -0.116955,-0.41503 -1.526607,-1.35946 -4.292556,-2.87592 -4.252728,-2.33159 -5.032156,-2.98627 -5.032156,-4.22677 0,-0.39947 2.432895,-4.88959 5.406433,-9.97804 l 5.406432,-9.25172 11.776917,-6.47254 c 6.477305,-3.55989 11.910877,-6.39367 12.074604,-6.2973 0.470402,0.2769 0.3728,4.99408 -0.112777,5.45071 -0.225756,0.2123 -4.018065,2.35766 -8.427355,4.76748 -4.873554,2.66356 -8.017072,4.55328 -8.017352,4.81964 -6.13e-4,0.57752 34.81837,19.71672 35.86963,19.71672 1.05125,0 35.87023,-19.1392 35.86963,-19.71672 -2.8e-4,-0.26636 -3.14381,-2.15608 -8.01736,-4.81964 -4.40929,-2.40982 -8.2016,-4.55518 -8.42735,-4.76748 -0.48773,-0.45865 -0.58217,-5.1744 -0.10922,-5.4528 0.16569,-0.0975 5.59937,2.73643 12.07485,6.2977 l 11.77358,6.47504 5.4062,9.25132 c 2.97341,5.08822 5.40619,9.57816 5.40619,9.97763 0,1.2405 -0.77942,1.89518 -5.03215,4.22677 -2.76595,1.51646 -4.1756,2.46089 -4.29256,2.87592 -0.0958,0.33987 -0.17602,5.69976 -0.17832,11.91085 l -0.004,11.29288 -0.85816,0.68319 c -0.472,0.37575 -10.24668,5.8424 -21.72153,12.1481 -16.46753,9.0493 -21.08453,11.46375 -21.91317,11.45943 -0.81794,-0.004 -5.690324,-2.55755 -22.057749,-11.55902 z m 43.453449,-5.49316 17.73017,-9.75517 0.0813,-8.70109 c 0.0463,-4.95496 -0.0389,-8.81556 -0.19783,-8.96697 -0.16775,-0.15976 -5.83045,2.78721 -14.18883,7.38414 -9.78998,5.38426 -14.20067,7.65884 -14.8922,7.67985 -1.38111,0.042 -1.95005,-0.5591 -4.41615,-4.66547 -1.18859,-1.97916 -2.28875,-3.59848 -2.44478,-3.59848 -0.17016,0 -0.28369,6.07833 -0.28369,15.18918 0,13.01394 0.0631,15.18917 0.4409,15.18917 0.24249,0 8.41948,-4.38982 18.17107,-9.75516 z M 95.778077,210.02244 c 1.824888,-3.05244 3.321415,-5.74706 3.325607,-5.98804 0.0077,-0.44314 -35.435564,-20.15558 -36.237486,-20.15415 -0.540672,8.2e-4 -7.443822,11.66375 -7.098433,11.99271 0.664897,0.63328 35.880206,19.83146 36.262786,19.76924 0.236248,-0.0384 1.922634,-2.56732 3.747526,-5.61976 z m 36.278803,-3.93129 c 9.62999,-5.29497 17.77047,-9.80929 18.08998,-10.03181 0.55176,-0.38428 0.40554,-0.69995 -2.91425,-6.29148 -1.92236,-3.23779 -3.67161,-5.88722 -3.88725,-5.88761 -0.72058,-8.3e-4 -36.25658,19.71015 -36.25668,20.11121 -8e-5,0.3547 2.25616,4.30334 5.5741,9.75525 0.65997,1.08442 1.35409,1.97167 1.54249,1.97167 0.18841,0 8.22163,-4.33225 17.85161,-9.62723 z M 90.248813,190.3418 c -2.3485,-1.32361 -3.589537,-2.20517 -3.774382,-2.68109 -0.154112,-0.39679 -0.233927,-7.27655 -0.18123,-15.62194 0.08808,-13.94937 0.130946,-14.96634 0.663433,-15.73996 0.855096,-1.24233 1.140175,-2.4944 0.922984,-4.05379 -0.1838,-1.31966 -0.28296,-1.44532 -1.668028,-2.11381 -1.947063,-0.93972 -3.562157,-2.54501 -4.544297,-4.51671 l -0.800253,-1.60655 -0.09141,-9.05508 c -0.100047,-9.91023 -0.06159,-10.15046 1.624837,-10.15046 1.589302,0 1.686767,0.4449 1.686767,7.69955 0,3.65121 0.08377,6.84649 0.186155,7.10061 0.220242,0.54665 1.073059,0.60636 1.592617,0.11152 0.265602,-0.25297 0.368021,-2.28337 0.368021,-7.29575 0,-6.90044 0.0045,-6.94805 0.696918,-7.38016 0.806458,-0.50328 1.908797,-0.32027 2.272046,0.37721 0.138174,0.26532 0.320232,3.63543 0.40457,7.48914 0.145175,6.63362 0.184925,7.01251 0.74644,7.11517 1.257628,0.22992 1.400354,-0.55943 1.400354,-7.74482 v -6.80178 l 0.766711,-0.47847 c 0.710243,-0.44324 0.823183,-0.44324 1.533424,0 l 0.766713,0.47847 v 6.54649 c 0,7.04943 0.17865,8.14447 1.303904,7.99225 0.687734,-0.093 0.690029,-0.11209 0.872405,-7.24972 0.100571,-3.93604 0.204077,-7.18627 0.230014,-7.22273 0.02594,-0.0364 0.392176,-0.2816 0.813867,-0.54476 0.710243,-0.44324 0.823183,-0.44324 1.533424,0 l 0.766713,0.47847 v 9.03739 c 0,8.43271 -0.0426,9.14585 -0.63673,10.65827 -0.772855,1.96741 -2.909041,4.14587 -4.960269,5.05843 l -1.456752,0.6481 v 1.94106 c 0,1.47937 0.182952,2.29721 0.769193,3.43846 l 0.76919,1.4974 -0.07914,17.22211 c -0.06916,15.04958 -0.137183,17.22952 -0.53918,17.28081 -0.253015,0.0323 -2.034571,-0.82872 -3.959016,-1.91333 z m 21.267607,1.62838 c -0.0842,-0.20913 -0.11443,-8.12868 -0.067,-17.59899 l 0.0862,-17.21876 0.70368,-0.93964 c 0.60506,-0.80794 0.69103,-1.2351 0.61337,-3.04777 l -0.0903,-2.10814 -1.53341,-0.84836 c -2.0909,-1.15678 -3.428,-2.42035 -4.39765,-4.15587 -0.76801,-1.37459 -0.81586,-1.69245 -0.81353,-5.40384 0.004,-4.74752 0.59069,-7.49013 2.30263,-10.74543 1.88181,-3.5783 4.26735,-5.32005 7.28648,-5.32005 4.02966,0 7.32257,3.47512 8.99548,9.49324 0.4919,1.76957 0.65984,3.29399 0.69183,6.28014 0.038,3.54924 -0.0269,4.07691 -0.64925,5.27986 -1.04054,2.01115 -2.61153,3.59218 -4.50639,4.5352 l -1.70106,0.84657 -6.1e-4,2.15627 c -6.1e-4,1.72906 0.13599,2.36565 0.68931,3.21309 0.68913,1.05542 0.69014,1.07658 0.76591,15.86389 0.0417,8.14388 -0.0456,15.11045 -0.19401,15.48127 -0.17766,0.44384 -1.52008,1.34793 -3.9287,2.64589 -2.01235,1.08442 -3.75799,1.97167 -3.87919,1.97167 -0.1212,0 -0.2893,-0.1711 -0.37356,-0.38024 z m 11.33032,-52.34372 c -0.0393,-3.49404 -0.56209,-5.8925 -1.84848,-8.48017 -0.85857,-1.7271 -1.71839,-2.23415 -2.51001,-1.48019 -0.42893,0.40854 -0.43938,0.59186 -0.0808,1.4175 1.49784,3.44874 2.16859,6.29461 2.17296,9.21929 0.003,2.02288 0.40969,2.74493 1.4797,2.6272 l 0.82275,-0.0905 z"
         id="path37"
         inkscape:connector-curvature="0" />
      <path
         style="fill:#f1cd0f;fill-opacity:1;stroke-width:0.29930335"
         d="M 101.7216,250.92882 C 93.950183,246.88444 60.096704,228.04556 59.475759,227.41974 l -0.843384,-0.85 v -11.6569 -11.65691 l -4.063573,-2.22895 c -4.40666,-2.41715 -5.136972,-3.01677 -5.136972,-4.21765 0,-0.47434 2.041012,-4.27098 5.136972,-9.55566 2.825333,-4.82274 5.274978,-8.96988 5.443655,-9.21586 0.266575,-0.38874 22.046369,-12.52509 23.299088,-12.98295 0.39926,-0.14593 0.468985,0.21605 0.468985,2.43475 v 2.60616 l -8.433832,4.63817 c -5.582656,3.07018 -8.433833,4.79864 -8.433833,5.11283 0,0.32035 5.819456,3.6729 17.901433,10.31289 9.845785,5.41103 18.077042,9.83824 18.291672,9.83824 0.21463,0 8.44395,-4.4294 18.28738,-9.84312 12.07444,-6.64073 17.89714,-9.99752 17.89714,-10.3177 0,-0.31448 -2.84544,-2.03441 -8.43384,-5.09786 l -8.43383,-4.62325 v -2.61626 c 0,-2.22776 0.0696,-2.5908 0.46899,-2.44485 1.27533,0.46612 23.03396,12.59729 23.29909,12.99003 0.16868,0.24987 2.61832,4.39431 5.44366,9.20985 3.12617,5.32832 5.13696,9.06598 5.13696,9.54859 0,1.20731 -0.72562,1.80393 -5.13696,4.22365 l -4.06358,2.22895 v 11.64522 11.64522 l -0.69004,0.7543 c -0.80605,0.8811 -42.33664,23.78862 -43.47258,23.97868 -0.42169,0.0705 -1.18073,-0.0872 -1.68676,-0.35053 z m 15.34363,-12.26026 c 5.72984,-3.15066 13.66108,-7.50603 17.62498,-9.6786 3.96391,-2.17256 7.37961,-4.15472 7.59045,-4.40478 0.46853,-0.55569 0.54751,-17.1694 0.0849,-17.86624 -0.25461,-0.38356 -0.39101,-0.37939 -1.14538,0.0349 -0.47099,0.25871 -6.86922,3.77362 -14.21828,7.81092 -7.34905,4.0373 -13.67354,7.34054 -14.05441,7.34054 -1.03061,0 -2.1476,-1.25795 -4.14985,-4.67359 -1.96933,-3.35948 -2.57441,-4.15611 -2.97684,-3.91921 -0.14614,0.086 -0.2657,7.11522 -0.2657,15.62043 0,14.63429 0.0293,15.46404 0.5461,15.46404 0.30035,0 5.23414,-2.57781 10.96398,-5.72847 z M 95.953014,210.21972 c 1.887583,-3.13185 3.440175,-5.90591 3.450203,-6.16458 0.01245,-0.32122 -5.725158,-3.63138 -18.100418,-10.44256 -9.965263,-5.48474 -18.2996,-9.97226 -18.52075,-9.97226 -0.530372,0 -7.266437,11.36882 -7.151847,12.07056 0.06177,0.37825 5.531922,3.54409 18.029729,10.43469 9.867585,5.44044 18.148074,9.86397 18.40109,9.83006 0.253014,-0.0339 2.004412,-2.62406 3.891993,-5.75591 z m 36.743756,-4.17509 c 12.33794,-6.79457 17.81488,-9.96138 17.87638,-10.33627 0.11432,-0.6968 -6.62128,-12.06804 -7.14833,-12.06804 -0.68451,0 -36.48442,19.83459 -36.58269,20.26828 -0.0805,0.35521 5.88603,10.74902 6.77944,11.80995 0.17852,0.21199 0.54122,0.32614 0.80603,0.25365 0.26479,-0.0725 8.48592,-4.53988 18.26917,-9.92757 z M 90.248798,190.39469 c -2.3485,-1.32361 -3.589537,-2.20517 -3.774382,-2.68109 -0.154112,-0.39679 -0.233927,-7.27655 -0.18123,-15.62194 0.08808,-13.94937 0.130946,-14.96634 0.663433,-15.73996 0.855096,-1.24233 1.140175,-2.4944 0.922984,-4.05379 -0.1838,-1.31966 -0.28296,-1.44532 -1.668028,-2.11381 -1.947063,-0.93972 -3.562157,-2.54501 -4.544297,-4.51671 l -0.800253,-1.60655 -0.09141,-9.05508 c -0.100047,-9.91023 -0.06159,-10.15046 1.624837,-10.15046 1.589302,0 1.686767,0.4449 1.686767,7.69955 0,3.65121 0.08377,6.84649 0.186155,7.10061 0.220242,0.54665 1.073059,0.60636 1.592617,0.11152 0.265602,-0.25297 0.368021,-2.28337 0.368021,-7.29575 0,-6.90044 0.0045,-6.94805 0.696918,-7.38016 0.806458,-0.50328 1.908797,-0.32027 2.272046,0.37721 0.138174,0.26532 0.320232,3.63543 0.40457,7.48914 0.145175,6.63362 0.184925,7.01251 0.74644,7.11517 1.257628,0.22992 1.400354,-0.55943 1.400354,-7.74482 v -6.80178 l 0.766711,-0.47847 c 0.710243,-0.44324 0.823183,-0.44324 1.533424,0 l 0.766713,0.47847 v 6.54649 c 0,7.04943 0.17865,8.14447 1.303904,7.99225 0.687734,-0.093 0.690029,-0.11209 0.872405,-7.24972 0.100571,-3.93604 0.204077,-7.18627 0.230014,-7.22273 0.02594,-0.0364 0.392176,-0.2816 0.813867,-0.54476 0.710243,-0.44324 0.823183,-0.44324 1.533424,0 l 0.766718,0.47847 v 9.03739 c 0,8.43271 -0.0426,9.14585 -0.636735,10.65827 -0.772855,1.96741 -2.909041,4.14587 -4.960269,5.05843 l -1.456752,0.6481 v 1.94106 c 0,1.47937 0.182952,2.29721 0.769193,3.43846 l 0.76919,1.4974 -0.07914,17.22211 c -0.06916,15.04958 -0.137183,17.22952 -0.53918,17.28081 -0.253015,0.0323 -2.034571,-0.82872 -3.959016,-1.91333 z m 21.267612,1.62838 c -0.0842,-0.20913 -0.11443,-8.12868 -0.067,-17.59899 l 0.0862,-17.21876 0.70368,-0.93964 c 0.60506,-0.80794 0.69103,-1.2351 0.61337,-3.04777 l -0.0903,-2.10814 -1.53341,-0.84836 c -2.0909,-1.15678 -3.428,-2.42035 -4.39765,-4.15587 -0.76801,-1.37459 -0.81586,-1.69245 -0.81353,-5.40384 0.004,-4.74752 0.59069,-7.49013 2.30263,-10.74543 1.88181,-3.5783 4.26735,-5.32005 7.28648,-5.32005 4.02966,0 7.32257,3.47512 8.99548,9.49324 0.4919,1.76957 0.65984,3.29399 0.69183,6.28014 0.038,3.54924 -0.0269,4.07691 -0.64925,5.27986 -1.04054,2.01115 -2.61153,3.59218 -4.50639,4.5352 l -1.70106,0.84657 -6.1e-4,2.15627 c -6.1e-4,1.72906 0.13599,2.36565 0.68931,3.21309 0.68913,1.05542 0.69014,1.07658 0.76591,15.86389 0.0417,8.14388 -0.0456,15.11045 -0.19401,15.48127 -0.17766,0.44384 -1.52008,1.34793 -3.9287,2.64589 -2.01235,1.08442 -3.75799,1.97167 -3.87919,1.97167 -0.1212,0 -0.2893,-0.1711 -0.37356,-0.38024 z m 11.33032,-52.34372 c -0.0393,-3.49404 -0.56209,-5.8925 -1.84848,-8.48017 -0.85857,-1.7271 -1.71839,-2.23415 -2.51001,-1.48019 -0.42893,0.40854 -0.43938,0.59186 -0.0808,1.4175 1.49784,3.44874 2.16859,6.29461 2.17296,9.21929 0.003,2.02288 0.40969,2.74493 1.4797,2.6272 l 0.82275,-0.0905 z"
         id="path35"
         inkscape:connector-curvature="0" />
      <path
         style="fill:#f1c40f;fill-opacity:1;stroke-width:0.29930335"
         d="M 101.7216,250.55659 C 93.950183,246.51221 60.096704,227.67333 59.475759,227.04751 l -0.843384,-0.85 v -11.6569 -11.65691 l -4.063573,-2.22895 c -4.40666,-2.41715 -5.136972,-3.01677 -5.136972,-4.21765 0,-0.47434 2.041012,-4.27098 5.136972,-9.55566 2.825333,-4.82274 5.274978,-8.96988 5.443655,-9.21586 0.266575,-0.38874 22.046369,-12.52509 23.299088,-12.98295 0.39926,-0.14593 0.468985,0.21605 0.468985,2.43475 v 2.60616 l -8.433832,4.63817 c -5.582656,3.07018 -8.433833,4.79864 -8.433833,5.11283 0,0.32035 5.819456,3.6729 17.901433,10.31289 9.845785,5.41103 18.077042,9.83824 18.291672,9.83824 0.21463,0 8.44395,-4.4294 18.28738,-9.84312 12.07444,-6.64073 17.89714,-9.99752 17.89714,-10.3177 0,-0.31448 -2.84544,-2.03441 -8.43384,-5.09786 l -8.43383,-4.62325 v -2.61626 c 0,-2.22776 0.0696,-2.5908 0.46899,-2.44485 1.27533,0.46612 23.03396,12.59729 23.29909,12.99003 0.16868,0.24987 2.61832,4.39431 5.44366,9.20985 3.12617,5.32832 5.13696,9.06598 5.13696,9.54859 0,1.20731 -0.72562,1.80393 -5.13696,4.22365 l -4.06358,2.22895 v 11.64522 11.64522 l -0.69004,0.7543 c -0.80605,0.8811 -42.33664,23.78862 -43.47258,23.97868 -0.42169,0.0705 -1.18073,-0.0872 -1.68676,-0.35053 z m 15.34363,-12.26026 c 5.72984,-3.15066 13.66108,-7.50603 17.62498,-9.6786 3.96391,-2.17256 7.37961,-4.15472 7.59045,-4.40478 0.46853,-0.55569 0.54751,-17.1694 0.0849,-17.86624 -0.25461,-0.38356 -0.39101,-0.37939 -1.14538,0.0349 -0.47099,0.25871 -6.86922,3.77362 -14.21828,7.81092 -7.34905,4.0373 -13.67354,7.34054 -14.05441,7.34054 -1.03061,0 -2.1476,-1.25795 -4.14985,-4.67359 -1.96933,-3.35948 -2.57441,-4.15611 -2.97684,-3.91921 -0.14614,0.086 -0.2657,7.11522 -0.2657,15.62043 0,14.63429 0.0293,15.46404 0.5461,15.46404 0.30035,0 5.23414,-2.57781 10.96398,-5.72847 z M 95.953014,209.84749 c 1.887583,-3.13185 3.440175,-5.90591 3.450203,-6.16458 0.01245,-0.32122 -5.725158,-3.63138 -18.100418,-10.44256 -9.965263,-5.48474 -18.2996,-9.97226 -18.52075,-9.97226 -0.530372,0 -7.266437,11.36882 -7.151847,12.07056 0.06177,0.37825 5.531922,3.54409 18.029729,10.43469 9.867585,5.44044 18.148074,9.86397 18.40109,9.83006 0.253014,-0.0339 2.004412,-2.62406 3.891993,-5.75591 z m 36.743756,-4.17509 c 12.33794,-6.79457 17.81488,-9.96138 17.87638,-10.33627 0.11432,-0.6968 -6.62128,-12.06804 -7.14833,-12.06804 -0.68451,0 -36.48442,19.83459 -36.58269,20.26828 -0.0805,0.35521 5.88603,10.74902 6.77944,11.80995 0.17852,0.21199 0.54122,0.32614 0.80603,0.25365 0.26479,-0.0725 8.48592,-4.53988 18.26917,-9.92757 z M 90.666503,189.36808 c -1.51015,-0.82108 -2.918238,-1.62546 -3.129084,-1.7875 -0.297708,-0.2288 -0.383355,-3.65186 -0.383355,-15.32147 v -15.02684 l 0.766711,-0.95741 c 0.672287,-0.8395 0.766712,-1.24939 0.766712,-3.32828 0,-2.64201 -0.329063,-3.18556 -2.442254,-4.0341 -1.387521,-0.55715 -2.003479,-1.10869 -3.276621,-2.93397 -1.461853,-2.09583 -1.661115,-3.65345 -1.611217,-12.59478 0.03835,-6.87222 0.09693,-7.70356 0.55947,-7.93933 1.235409,-0.62973 1.346187,-0.0927 1.483471,7.19167 0.1088,5.77308 0.213045,7.05052 0.609929,7.47432 0.631651,0.6745 1.467719,0.64705 2.223743,-0.073 0.577703,-0.55023 0.613371,-0.97367 0.613371,-7.28163 0,-5.6991 0.07183,-6.76584 0.481933,-7.15643 0.580938,-0.55331 1.019748,-0.58719 1.215997,-0.0939 0.07988,0.20082 0.179063,3.43292 0.220386,7.18244 0.07464,6.77234 0.07991,6.82101 0.79915,7.37552 0.864716,0.66666 1.262836,0.69458 2.054203,0.14404 0.554967,-0.38608 0.600642,-0.86617 0.673893,-7.08342 0.09095,-7.71908 0.137163,-8.05765 1.082331,-7.92964 0.675541,0.0915 0.680024,0.13106 0.832542,7.34547 0.144301,6.82579 0.18951,7.27867 0.766713,7.68063 0.62705,0.43669 1.86959,0.32614 2.453478,-0.21828 0.183765,-0.17135 0.324,-2.91396 0.349887,-6.84284 0.04502,-6.83318 0.166491,-8.01905 0.821358,-8.01905 1.056691,0 1.129056,0.59601 1.11543,9.18653 -0.01006,6.33886 -0.117782,8.76396 -0.425828,9.58625 -0.691142,1.84488 -2.354496,3.85516 -3.939842,4.76154 -2.827794,1.61674 -2.785882,1.55771 -2.808022,3.95488 -0.01518,1.64339 0.149503,2.53092 0.689655,3.71684 l 0.709595,1.55795 -0.02898,16.25451 c -0.01594,8.93999 -0.134748,16.35525 -0.264004,16.47835 -0.129252,0.12311 -1.470583,-0.44796 -2.980734,-1.26905 z m 21.588027,-14.6439 c -0.0263,-8.87617 -0.0158,-16.46711 0.0231,-16.86874 0.0389,-0.40164 0.32595,-1.12459 0.63781,-1.60655 0.65302,-1.0092 1.0602,-4.00766 0.70319,-5.17818 -0.17098,-0.56054 -0.87933,-1.16883 -2.38979,-2.05217 -3.96897,-2.32112 -5.08922,-5.04526 -4.51052,-10.96834 0.5769,-5.90474 2.5034,-9.98342 5.70367,-12.07549 1.27628,-0.83432 1.75627,-0.97824 3.22019,-0.96552 4.6596,0.0405 8.11721,5.21687 8.91095,13.34058 0.56495,5.78204 -0.83663,8.79538 -5.14287,11.05689 -1.35578,0.71202 -1.44601,0.83731 -1.68281,2.33679 -0.32943,2.08611 -0.0966,3.67678 0.68561,4.6845 0.62448,0.80448 0.63624,1.09762 0.63624,15.8547 v 15.03506 l -0.84339,0.56433 c -1.23696,0.82769 -5.29956,2.98065 -5.62445,2.98065 -0.1639,0 -0.29893,-6.66551 -0.32693,-16.13851 z m 10.67838,-31.61295 c 0.95784,-0.63899 1.10651,-1.69423 0.71977,-5.10865 -0.48599,-4.29062 -1.56809,-7.58681 -2.99989,-9.13802 -0.54684,-0.59245 -2.30408,-0.68576 -2.7504,-0.14605 -0.59033,0.71385 -0.73982,2.02194 -0.28768,2.5172 1.09746,1.20209 2.17892,5.80934 2.44154,10.40149 0.0522,0.91205 0.23119,1.24066 0.83315,1.52922 0.9899,0.47451 1.26044,0.46721 2.04351,-0.0552 z"
         id="path33"
         inkscape:connector-curvature="0" />
      <path
         style="fill:#e67e22;fill-opacity:1;stroke-width:0.29930335"
         d="M 101.5564,250.97403 C 93.784984,246.92965 59.931505,228.09077 59.31056,227.46495 l -0.843384,-0.85 v -11.6569 -11.65691 l -4.063573,-2.22895 c -4.40666,-2.41715 -5.136972,-3.01677 -5.136972,-4.21765 0,-0.47434 2.041012,-4.27098 5.136972,-9.55566 2.825333,-4.82274 5.274978,-8.96988 5.443655,-9.21586 0.266575,-0.38874 22.046369,-12.52509 23.299088,-12.98295 0.39926,-0.14593 0.468985,0.21605 0.468985,2.43475 v 2.60616 l -8.433832,4.63817 c -5.582656,3.07018 -8.433833,4.79864 -8.433833,5.11283 0,0.32035 5.819456,3.6729 17.901433,10.31289 9.845785,5.41103 18.077041,9.83824 18.291671,9.83824 0.21463,0 8.44395,-4.4294 18.28738,-9.84312 12.07444,-6.64073 17.89714,-9.99752 17.89714,-10.3177 0,-0.31448 -2.84544,-2.03441 -8.43384,-5.09786 l -8.43383,-4.62325 v -2.61626 c 0,-2.22776 0.0696,-2.5908 0.46899,-2.44485 1.27533,0.46612 23.03396,12.59729 23.29909,12.99003 0.16868,0.24987 2.61832,4.39431 5.44366,9.20985 3.12617,5.32832 5.13696,9.06598 5.13696,9.54859 0,1.20731 -0.72562,1.80393 -5.13696,4.22365 l -4.06358,2.22895 v 11.64522 11.64522 l -0.69004,0.7543 c -0.80605,0.8811 -42.33664,23.78862 -43.47258,23.97868 -0.42169,0.0705 -1.18073,-0.0872 -1.68676,-0.35053 z m 15.34363,-12.26026 c 5.72984,-3.15066 13.66108,-7.50603 17.62498,-9.6786 3.96391,-2.17256 7.37961,-4.15472 7.59045,-4.40478 0.46853,-0.55569 0.54751,-17.1694 0.0849,-17.86624 -0.25461,-0.38356 -0.39101,-0.37939 -1.14538,0.0349 -0.47099,0.25871 -6.86922,3.77362 -14.21828,7.81092 -7.34905,4.0373 -13.67354,7.34054 -14.05441,7.34054 -1.03061,0 -2.1476,-1.25795 -4.14985,-4.67359 -1.96933,-3.35948 -2.57441,-4.15611 -2.97684,-3.91921 -0.14614,0.086 -0.2657,7.11522 -0.2657,15.62043 0,14.63429 0.0293,15.46404 0.5461,15.46404 0.30035,0 5.23414,-2.57781 10.96398,-5.72847 z M 95.787815,210.26493 c 1.887583,-3.13185 3.440175,-5.90591 3.450203,-6.16458 0.01245,-0.32122 -5.725158,-3.63138 -18.100418,-10.44256 -9.965263,-5.48474 -18.2996,-9.97226 -18.52075,-9.97226 -0.530372,0 -7.266437,11.36882 -7.151847,12.07056 0.06177,0.37825 5.531922,3.54409 18.029729,10.43469 9.867585,5.44044 18.148074,9.86397 18.40109,9.83006 0.253014,-0.0339 2.004412,-2.62406 3.891993,-5.75591 z m 36.743755,-4.17509 c 12.33794,-6.79457 17.81488,-9.96138 17.87638,-10.33627 0.11432,-0.6968 -6.62128,-12.06804 -7.14833,-12.06804 -0.68451,0 -36.48442,19.83459 -36.58269,20.26828 -0.0805,0.35521 5.88603,10.74902 6.77944,11.80995 0.17852,0.21199 0.54122,0.32614 0.80603,0.25365 0.26479,-0.0725 8.48592,-4.53988 18.26917,-9.92757 z"
         id="path31"
         inkscape:connector-curvature="0" />
    </g>
  </g>
</svg>
